<?xml version="1.0" encoding="iso-8859-1"?>
<!-- Generator: Adobe Illustrator 16.0.0, SVG Export Plug-In . SVG Version: 6.00 Build 0)  -->
<!DOCTYPE svg PUBLIC "-//W3C//DTD SVG 1.1//EN" "http://www.w3.org/Graphics/SVG/1.1/DTD/svg11.dtd">
<svg version="1.1" id="Layer_1" xmlns="http://www.w3.org/2000/svg" xmlns:xlink="http://www.w3.org/1999/xlink" x="0px" y="0px"
	 width="100px" height="100px" viewBox="0 0 36 36" style="enable-background:new 0 0 36 36;" xml:space="preserve">
<g>
	<path style="fill:#fff;" d="M18.437,10.887c-1.646,1.646-3.313,3.01-4.632,4.002c0.1,0.116,0.202,0.226,0.303,0.326
		c0.093,0.093,0.192,0.185,0.296,0.277C16.565,13.157,21.223,8.102,18.437,10.887z"/>
	<path style="fill:#fff;" d="M31.003,20.675l-0.163-0.553l-0.171-0.54l-0.205-0.501l-0.192-0.499l-0.197-0.489l-0.178-0.479
		l-0.149-0.502l-0.12-0.5l0.028-0.23l0.106-0.219l0.108-0.229l0.027-0.215l-0.092-0.44l-0.11-0.438l-0.119-0.445l-0.137-0.429
		l-0.146-0.436l-0.151-0.427l-0.165-0.437l-0.171-0.422L27.224,7.75l-0.292-0.197L26.65,7.347c0,0-11.083-4.514-16,1.056
		c-4.918,5.57-0.387,14.311-0.387,14.311c3.442,3.547,3.298,7.091,3.298,7.091l0.008,0.7l0.027,2.148h11.739l0.049-0.22v-0.686
		l0.027-0.69l0.051-1.541l0.081-0.782l0.037-0.186l0.075-0.149l0.078-0.133l0.104-0.112l0.139-0.078l0.159-0.054l0.177-0.058
		l0.19-0.028l0.246-0.024l0.229-0.013h0.055l0.231,0.025l0.216,0.012l0.23,0.028l0.21,0.017l0.245,0.03l0.231,0.024l-0.578,0.013
		l0.256,0.028l0.256,0.013l0.283,0.014l0.165-0.014l0.17-0.041l0.175-0.067l0.167-0.083l0.159-0.105l0.138-0.126l0.115-0.132
		l0.1-0.138l0.065-0.297l-0.035-0.321l-0.061-0.321v-0.313l0.047-0.138l0.065-0.116l0.064-0.126l0.082-0.107l0.084-0.112
		l0.065-0.119l0.054-0.125l0.012-0.131l-0.012-0.152l-0.027-0.132l-0.04-0.139l-0.067-0.13l-0.097-0.125l-0.107-0.12l-0.124-0.09
		l-0.146-0.101l0.157-0.078l0.153-0.092l0.153-0.112l0.104-0.105l0.092-0.125l0.057-0.133l0.029-0.124l-0.029-0.132l-0.149-0.476
		l-0.094-0.431l-0.059-0.403v-0.395l0.229-0.092l0.205-0.093l0.178-0.099l0.145-0.105l0.113-0.118l0.066-0.125l0.039-0.131
		L31.003,20.675z M19.865,15.603c-2.018,2.018-4.167,1.033-5.461-0.11c-0.603,0.65-1.011,1.09-1.011,1.09l-2.187,0.115
		c0,0,1.063-0.651,2.599-1.808c-1.131-1.296-2.084-3.43-0.083-5.43c2.179-2.179,8.277-2.134,8.277-2.134
		S22.044,13.424,19.865,15.603z"/>
</g>
</svg>
