<?xml version="1.0" encoding="iso-8859-1"?>
<!-- Generator: Adobe Illustrator 16.0.0, SVG Export Plug-In . SVG Version: 6.00 Build 0)  -->
<!DOCTYPE svg PUBLIC "-//W3C//DTD SVG 1.1//EN" "http://www.w3.org/Graphics/SVG/1.1/DTD/svg11.dtd">
<svg version="1.1" id="Layer_1" xmlns="http://www.w3.org/2000/svg" xmlns:xlink="http://www.w3.org/1999/xlink" x="0px" y="0px"
	 width="90px" height="90px" viewBox="0 0 36 36" style="enable-background:new 0 0 36 36;" xml:space="preserve">
<g>
	<path style="fill:#fff;" d="M20.88,21.092c-2.174,2.175-4.379,3.979-6.122,5.291c0.132,0.152,0.268,0.296,0.401,0.431
		c0.122,0.122,0.253,0.244,0.39,0.365C18.406,24.093,24.562,17.411,20.88,21.092z"/>
	<path style="fill:#fff;" d="M31.849,16.865L20.254,6.362c-0.543-0.492-1.37-0.498-1.921-0.013L6.352,16.903
		c-0.504,0.444-0.635,1.178-0.313,1.769c0.34,0.627,1.145,1.359,2.292,1.359c0.246,0,0.493-0.034,0.739-0.101v9.375
		c-0.003,0.246,0.044,0.885,0.543,1.403c0.356,0.371,0.852,0.576,1.394,0.576c0.64,0,5.944-0.007,5.947-0.007l4.019-0.015h5.818
		c0.583,0,1.114-0.218,1.493-0.615c0.53-0.554,0.576-1.236,0.572-1.499V19.82c0.324,0.102,0.643,0.152,0.957,0.152l0,0
		c1.207,0,2.02-0.74,2.35-1.375C32.462,18.017,32.334,17.305,31.849,16.865z M22.767,27.324c-2.666,2.666-5.507,1.366-7.218-0.146
		c-0.795,0.86-1.336,1.441-1.336,1.441l-2.889,0.152c0,0,1.404-0.861,3.434-2.389c-1.495-1.715-2.755-4.533-0.11-7.178
		c2.879-2.88,10.939-2.821,10.939-2.821S25.647,24.445,22.767,27.324z"/>
</g>
</svg>
