<?xml version="1.0" encoding="iso-8859-1"?>
<!-- Generator: Adobe Illustrator 16.0.0, SVG Export Plug-In . SVG Version: 6.00 Build 0)  -->
<!DOCTYPE svg PUBLIC "-//W3C//DTD SVG 1.1//EN" "http://www.w3.org/Graphics/SVG/1.1/DTD/svg11.dtd">
<svg version="1.1" id="Layer_1" xmlns="http://www.w3.org/2000/svg" xmlns:xlink="http://www.w3.org/1999/xlink" x="0px" y="0px"
	 width="90px" height="90px" viewBox="0 0 36 36" style="enable-background:new 0 0 36 36;" xml:space="preserve">
<g>
	<path style="fill:#fff;" d="M28.48,13.846c0.39-0.554,0.718-1.221,0.922-1.953c0.222-0.73,0.293-1.526,0.241-2.328
		c-0.062-0.8-0.25-1.607-0.605-2.342C28.7,6.486,28.21,5.82,27.648,5.329c-0.563-0.49-1.19-0.789-1.656-0.878
		c-0.224-0.059-0.437-0.04-0.561-0.036c-0.127,0.013-0.195,0.021-0.195,0.021s0.001,0.066-0.001,0.191
		c0,0.117-0.041,0.312-0.063,0.494c-0.071,0.397-0.217,0.863-0.382,1.371c-0.315,1.002-0.562,2.2-0.454,3.462
		c0.053,0.626,0.158,1.264,0.36,1.876c0.187,0.61,0.446,1.195,0.729,1.711c0.258,0.459,0.835,1.515,1.066,1.802
		c0.184-0.484,0.36-0.982,0.489-1.501c0.111-0.359,0.168-0.729,0.243-1.089c0.074-0.362,0.088-0.725,0.134-1.074
		c0.015-0.35,0.004-0.689,0.007-1.012c-0.041-0.319-0.08-0.623-0.114-0.901c-0.078-0.271-0.148-0.521-0.21-0.741
		c-0.048-0.229-0.172-0.395-0.232-0.547c-0.145-0.299-0.228-0.471-0.228-0.471s0.095,0.165,0.262,0.452
		c0.072,0.149,0.21,0.311,0.274,0.535c0.08,0.22,0.169,0.469,0.268,0.739c0.058,0.283,0.12,0.589,0.186,0.914
		c0.021,0.328,0.058,0.678,0.068,1.039c-0.021,0.36-0.008,0.737-0.057,1.113c-0.05,0.377-0.081,0.764-0.168,1.139
		c-0.08,0.432-0.182,0.854-0.294,1.266c0.041-0.028,0.087-0.051,0.128-0.083C27.645,14.837,28.083,14.396,28.48,13.846z"/>
	<path style="fill:#fff;" d="M26.952,15.311c-0.103,0.041-0.349,0.481-0.423,0.668c-0.268,0.648-0.553,1.238-0.813,1.734
		c-0.026,0.051-0.052,0.097-0.078,0.146l-6.435-5.83c-0.425-0.386-1.072-0.39-1.503-0.01l-9.384,8.263
		c-0.394,0.349-0.496,0.924-0.245,1.387c0.267,0.49,0.896,1.064,1.795,1.064c0.193,0,0.386-0.026,0.578-0.08v7.341
		c-0.001,0.052,0.004,0.13,0.016,0.219H9.214V32.3h3.653v-9.136h3.991V32.3h10.495v-2.088h-1.452
		c0.026-0.141,0.037-0.267,0.035-0.341v-7.305c0.254,0.08,0.505,0.12,0.75,0.12c0.945,0,1.581-0.58,1.839-1.076
		c0.237-0.456,0.137-1.014-0.243-1.357l-2.256-2.044c0.357-0.798,0.773-1.843,1.093-3.005
		C27.064,15.239,27.013,15.281,26.952,15.311z M23.383,27.406h-3.99V23.1h3.99V27.406z"/>
</g>
</svg>
