<?xml version="1.0" encoding="iso-8859-1"?>
<!-- Generator: Adobe Illustrator 16.0.0, SVG Export Plug-In . SVG Version: 6.00 Build 0)  -->
<!DOCTYPE svg PUBLIC "-//W3C//DTD SVG 1.1//EN" "http://www.w3.org/Graphics/SVG/1.1/DTD/svg11.dtd">
<svg version="1.1" id="Layer_1" xmlns="http://www.w3.org/2000/svg" xmlns:xlink="http://www.w3.org/1999/xlink" x="0px" y="0px"
	 width="90px" height="90px" viewBox="0 0 36 36" style="enable-background:new 0 0 36 36;" xml:space="preserve">
<g>
	<path style="fill:#fff;" d="M31.67,23.554c-1.407-1.909-3.249-3.333-5.191-4.598c-1.576-1.025-3.37-0.807-5.042-0.138
		c-0.105,0.042-0.209,0.064-0.314,0.099c-0.057-0.288-0.098-0.568-0.176-0.863c-0.139-0.545-0.332-1.09-0.516-1.629
		c-0.214-0.554-0.446-1.103-0.727-1.626c-0.14-0.262-0.281-0.524-0.443-0.772c-0.15-0.256-0.32-0.495-0.491-0.733
		c-0.162-0.243-0.358-0.458-0.533-0.684c-0.185-0.218-0.382-0.421-0.569-0.625c-0.202-0.19-0.393-0.385-0.594-0.559
		c-0.208-0.168-0.398-0.346-0.604-0.493c-0.404-0.308-0.807-0.567-1.187-0.79c-0.193-0.106-0.378-0.207-0.555-0.304
		c-0.182-0.084-0.354-0.165-0.516-0.241c-0.323-0.151-0.62-0.249-0.856-0.346c-0.487-0.157-0.765-0.248-0.765-0.248
		s0.273,0.104,0.751,0.283c0.23,0.109,0.521,0.221,0.834,0.387c0.157,0.083,0.324,0.17,0.5,0.264
		c0.169,0.103,0.347,0.212,0.533,0.326c0.364,0.238,0.748,0.512,1.128,0.833c0.195,0.153,0.374,0.338,0.568,0.511
		c0.188,0.179,0.365,0.379,0.553,0.573c0.172,0.207,0.354,0.414,0.522,0.634c0.159,0.228,0.339,0.444,0.485,0.688
		c0.154,0.237,0.307,0.477,0.44,0.73c0.145,0.247,0.269,0.506,0.391,0.766c0.248,0.519,0.443,1.059,0.62,1.585
		c0.16,0.558,0.318,1.089,0.426,1.612c0.064,0.3,0.114,0.595,0.156,0.884c-0.704,0.132-1.4,0.104-2.083-0.103
		c-1.312-0.397-2.632-0.44-3.972-0.444c-0.574-0.002-1.051,0.199-1.393,0.65c-0.191,0.252,1.373,1.299,2.714,1.299
		c-0.249,0.497-4.585-0.556-5.163-0.513l-3.282-0.419c-1.165-0.095-1.164-0.536-2.31,0.114c-0.039,0.022-0.095,0.022-0.143,0.02
		c-0.637-0.038-0.998,0.166-1.352,0.587c-0.205,0.244-0.188,0.543-0.079,0.828c0.115,0.297,0.407,0.22,0.648,0.315
		c1.467,0.582,1.94,0.865,3.93,1.356c1.415,0.349,2.793,0.777,4.207,1.096c0.584,0.133,1.178,0.232,1.705,0.528
		c1.12,0.629,2.309,0.822,3.588,0.763c1.451-0.067,2.907-0.008,4.361-0.016c2.553-0.012,4.492,1.01,5.804,3.258l8.212-0.017
		C34.099,26.288,33.309,25.779,31.67,23.554z"/>
	<path style="fill:#fff;" d="M20.229,15.069c0.023,0.089,0.059,0.165,0.075,0.214c0.021,0.05,0.033,0.078,0.033,0.078
		s0.023-0.018,0.068-0.051c0.039-0.035,0.106-0.082,0.172-0.147c0.143-0.128,0.326-0.318,0.506-0.556
		c0.182-0.237,0.361-0.523,0.516-0.839c0.154-0.317,0.287-0.662,0.382-1.018c0.197-0.71,0.237-1.463,0.158-2.057
		c-0.037-0.296-0.101-0.551-0.161-0.735c-0.023-0.09-0.058-0.165-0.075-0.214c-0.021-0.051-0.033-0.078-0.033-0.078
		s-0.024,0.018-0.068,0.051c-0.039,0.034-0.107,0.081-0.173,0.147c-0.143,0.129-0.327,0.318-0.507,0.555
		c-0.366,0.474-0.709,1.146-0.896,1.858c-0.096,0.355-0.155,0.721-0.18,1.072c-0.026,0.351-0.014,0.688,0.024,0.984
		C20.106,14.63,20.17,14.886,20.229,15.069z"/>
	<path style="fill:#fff;" d="M16.972,10.346c0.023,0.09,0.058,0.165,0.075,0.214c0.022,0.051,0.033,0.078,0.033,0.078
		s0.023-0.017,0.067-0.05c0.039-0.035,0.106-0.082,0.172-0.147c0.143-0.129,0.326-0.318,0.506-0.556
		c0.181-0.237,0.361-0.523,0.515-0.839c0.155-0.316,0.287-0.662,0.383-1.018c0.197-0.71,0.237-1.463,0.159-2.056
		c-0.038-0.297-0.102-0.552-0.161-0.735c-0.024-0.09-0.058-0.165-0.075-0.214c-0.022-0.051-0.033-0.079-0.033-0.079
		s-0.024,0.018-0.068,0.051c-0.039,0.034-0.106,0.082-0.172,0.147c-0.144,0.129-0.327,0.318-0.507,0.555
		c-0.366,0.474-0.709,1.145-0.896,1.858c-0.096,0.356-0.155,0.722-0.18,1.073c-0.026,0.351-0.014,0.688,0.024,0.984
		C16.849,9.907,16.913,10.163,16.972,10.346z"/>
	<path style="fill:#fff;" d="M13.524,15.623c-0.08,0.046-0.143,0.1-0.187,0.129c-0.043,0.035-0.066,0.053-0.066,0.053
		s0.023,0.018,0.066,0.052c0.043,0.028,0.106,0.082,0.188,0.128c0.161,0.104,0.392,0.232,0.668,0.343
		c0.554,0.229,1.291,0.384,2.028,0.377c0.369-0.001,0.738-0.041,1.083-0.109c0.346-0.067,0.667-0.167,0.943-0.282
		c0.277-0.113,0.506-0.241,0.667-0.346c0.081-0.046,0.144-0.1,0.188-0.128c0.042-0.035,0.066-0.052,0.066-0.052
		s-0.023-0.019-0.067-0.052c-0.043-0.029-0.107-0.082-0.187-0.127c-0.162-0.104-0.393-0.231-0.669-0.342
		c-0.277-0.113-0.6-0.211-0.946-0.277c-0.346-0.066-0.714-0.103-1.083-0.102c-0.737-0.003-1.474,0.156-2.025,0.389
		C13.916,15.389,13.686,15.518,13.524,15.623z"/>
	<path style="fill:#fff;" d="M10.444,12.13c0.17,0.091,0.411,0.198,0.695,0.286c0.571,0.182,1.319,0.274,2.053,0.204
		c0.367-0.032,0.731-0.102,1.069-0.2c0.338-0.096,0.651-0.223,0.917-0.36c0.266-0.136,0.484-0.283,0.635-0.401
		c0.077-0.053,0.135-0.111,0.176-0.144c0.041-0.037,0.062-0.058,0.062-0.058s-0.024-0.016-0.07-0.045
		c-0.046-0.025-0.113-0.072-0.198-0.111c-0.169-0.09-0.41-0.198-0.696-0.285c-0.285-0.088-0.615-0.16-0.965-0.196
		c-0.35-0.037-0.721-0.043-1.088-0.011c-0.734,0.059-1.455,0.28-1.986,0.558c-0.265,0.136-0.484,0.284-0.635,0.403
		c-0.077,0.053-0.135,0.112-0.176,0.144c-0.04,0.038-0.061,0.058-0.061,0.058s0.024,0.016,0.071,0.046
		C10.292,12.043,10.36,12.091,10.444,12.13z"/>
</g>
</svg>
