<?xml version="1.0" encoding="iso-8859-1"?>
<!-- Generator: Adobe Illustrator 16.0.0, SVG Export Plug-In . SVG Version: 6.00 Build 0)  -->
<!DOCTYPE svg PUBLIC "-//W3C//DTD SVG 1.1//EN" "http://www.w3.org/Graphics/SVG/1.1/DTD/svg11.dtd">
<svg version="1.1" id="Layer_1" xmlns="http://www.w3.org/2000/svg" xmlns:xlink="http://www.w3.org/1999/xlink" x="0px" y="0px"
	 width="90px" height="90px" viewBox="0 0 36 36" style="enable-background:new 0 0 36 36;" xml:space="preserve">
<g>
	<path style="fill:#fff;" d="M30.643,18.235c0-6.576-5.331-11.908-11.908-11.908S6.826,11.659,6.826,18.235
		s5.33,11.906,11.905,11.908c-0.024-2.417-0.032-5.9,0.006-5.98c-0.074-0.189-0.236-0.592-0.497-1.123
		c-0.181-0.369-0.407-0.793-0.675-1.232c-0.077-0.125-0.232-0.461-0.213-0.54c0.01-0.049,0.007-0.097,0.01-0.145
		c-0.196-0.245-0.401-0.487-0.622-0.722c-0.185-0.215-0.4-0.4-0.601-0.593c-0.203-0.192-0.432-0.348-0.636-0.516
		c-0.219-0.15-0.44-0.281-0.645-0.409c-0.221-0.102-0.43-0.197-0.623-0.286c-0.202-0.059-0.388-0.114-0.552-0.161
		c-0.162-0.06-0.316-0.048-0.437-0.069c-0.242-0.026-0.381-0.041-0.381-0.041s0.137,0.024,0.377,0.068
		c0.117,0.03,0.269,0.029,0.424,0.1c0.158,0.06,0.336,0.126,0.53,0.197c0.18,0.1,0.376,0.208,0.583,0.322
		c0.19,0.141,0.396,0.282,0.597,0.442c0.187,0.179,0.396,0.343,0.578,0.544c0.181,0.2,0.375,0.394,0.539,0.615
		c0.251,0.301,0.471,0.621,0.677,0.939c-0.27,0.013-1.145-0.103-1.528-0.148c-0.427-0.056-0.886-0.155-1.329-0.31
		c-0.449-0.146-0.873-0.358-1.267-0.598c-0.793-0.483-1.396-1.148-1.854-1.77c-0.229-0.316-0.441-0.604-0.646-0.818
		c-0.099-0.093-0.195-0.201-0.267-0.252c-0.073-0.056-0.111-0.084-0.111-0.084s0.025-0.044,0.072-0.125
		c0.05-0.074,0.133-0.209,0.264-0.315c0.255-0.237,0.704-0.48,1.237-0.601s1.141-0.122,1.723-0.003
		c0.589,0.108,1.148,0.346,1.649,0.655c0.497,0.316,0.938,0.703,1.274,1.151c0.345,0.438,0.598,0.92,0.757,1.391
		c0.154,0.475,0.225,0.924,0.221,1.282c0.002,0.039-0.005,0.076-0.006,0.112c0.722,0.908,1.258,1.835,1.569,2.425
		c0.055-0.182,0.112-0.378,0.171-0.596c0.141-0.525,0.285-1.144,0.401-1.813c0.031-0.191,0.169-0.661,0.258-0.722
		c0.051-0.041,0.091-0.091,0.135-0.136c0.019-0.413,0.024-0.834,0.01-1.259c0.003-0.374-0.051-0.747-0.083-1.113
		c-0.034-0.366-0.126-0.721-0.184-1.065c-0.087-0.339-0.194-0.662-0.285-0.968c-0.131-0.293-0.256-0.569-0.37-0.825
		c-0.149-0.235-0.288-0.451-0.409-0.642c-0.108-0.2-0.273-0.322-0.374-0.448c-0.219-0.237-0.344-0.372-0.344-0.372
		s0.115,0.145,0.316,0.396c0.09,0.132,0.241,0.262,0.335,0.468c0.105,0.195,0.225,0.416,0.356,0.656
		c0.092,0.257,0.192,0.534,0.3,0.828c0.065,0.306,0.147,0.625,0.208,0.96c0.031,0.339,0.096,0.684,0.102,1.043
		c0.006,0.356,0.031,0.718,0.002,1.082c-0.012,0.517-0.073,1.026-0.144,1.523c-0.28-0.223-1.051-1.099-1.393-1.478
		c-0.376-0.428-0.745-0.926-1.052-1.464c-0.321-0.535-0.557-1.116-0.74-1.697c-0.369-1.171-0.391-2.356-0.305-3.371
		c0.048-0.515,0.086-0.986,0.069-1.377c-0.018-0.178-0.02-0.37-0.045-0.481c-0.024-0.118-0.039-0.182-0.039-0.182
		s0.063-0.021,0.18-0.061c0.116-0.03,0.314-0.093,0.538-0.085c0.46-0.015,1.117,0.135,1.753,0.479
		c0.635,0.346,1.24,0.871,1.717,1.495c0.491,0.619,0.842,1.344,1.069,2.088c0.221,0.746,0.321,1.514,0.268,2.252
		c-0.038,0.736-0.207,1.437-0.458,2.043c-0.259,0.605-0.579,1.114-0.896,1.468c-0.031,0.04-0.07,0.07-0.104,0.106
		c-0.046,0.979-0.174,1.898-0.313,2.661c0.319-0.563,0.767-1.281,1.33-1.989c-0.002-0.037-0.008-0.074-0.007-0.112
		c-0.003-0.359,0.067-0.809,0.222-1.283c0.159-0.47,0.412-0.953,0.756-1.391c0.338-0.447,0.778-0.835,1.275-1.15
		c0.5-0.311,1.061-0.548,1.648-0.656c0.583-0.118,1.189-0.116,1.723,0.003c0.534,0.121,0.983,0.363,1.238,0.601
		c0.131,0.107,0.213,0.241,0.264,0.316c0.047,0.08,0.072,0.125,0.072,0.125s-0.039,0.028-0.112,0.083
		c-0.07,0.052-0.167,0.159-0.266,0.252c-0.204,0.214-0.417,0.502-0.646,0.819c-0.456,0.62-1.06,1.285-1.854,1.769
		c-0.393,0.239-0.817,0.453-1.266,0.598c-0.444,0.155-0.902,0.254-1.33,0.311c-0.383,0.045-1.258,0.161-1.528,0.148
		c0.207-0.318,0.426-0.64,0.677-0.94c0.164-0.222,0.358-0.414,0.54-0.614c0.183-0.202,0.391-0.366,0.578-0.544
		c0.2-0.161,0.405-0.302,0.596-0.443c0.208-0.114,0.403-0.223,0.583-0.322c0.195-0.071,0.373-0.138,0.531-0.196
		c0.155-0.07,0.307-0.07,0.423-0.101c0.24-0.042,0.378-0.067,0.378-0.067s-0.139,0.014-0.381,0.04
		c-0.12,0.021-0.274,0.01-0.437,0.069c-0.164,0.048-0.35,0.103-0.553,0.162c-0.192,0.088-0.401,0.184-0.622,0.285
		c-0.204,0.13-0.427,0.26-0.645,0.41c-0.204,0.168-0.433,0.323-0.636,0.516c-0.2,0.191-0.417,0.378-0.601,0.592
		c-0.222,0.234-0.427,0.478-0.622,0.723c0.003,0.048,0,0.096,0.01,0.145c0.02,0.079-0.136,0.415-0.213,0.539
		c-0.269,0.44-0.494,0.864-0.675,1.233c-0.246,0.504-0.408,4.618-0.488,7.232C25.743,29.684,30.643,24.538,30.643,18.235z"/>
</g>
</svg>
