<?xml version="1.0" encoding="iso-8859-1"?>
<!-- Generator: Adobe Illustrator 16.0.0, SVG Export Plug-In . SVG Version: 6.00 Build 0)  -->
<!DOCTYPE svg PUBLIC "-//W3C//DTD SVG 1.1//EN" "http://www.w3.org/Graphics/SVG/1.1/DTD/svg11.dtd">
<svg version="1.1" id="Layer_1" xmlns="http://www.w3.org/2000/svg" xmlns:xlink="http://www.w3.org/1999/xlink" x="0px" y="0px"
	 width="90px" height="90px" viewBox="0 0 36 36" style="enable-background:new 0 0 36 36;" xml:space="preserve">
<g>
	<circle style="fill:#fff;" cx="20.828" cy="12.682" r="3.833"/>
	<path style="fill:#fff;" d="M32.143,11.636c-0.844-0.717-2.104-0.612-2.818,0.231l-5.643,6.649
		c-0.727-0.739-1.734-1.201-2.854-1.201c-1.201,0-2.266,0.54-2.998,1.378l-5.793-6.827c-0.717-0.842-1.977-0.946-2.82-0.231
		c-0.842,0.715-0.945,1.977-0.23,2.819l7.529,8.871c0.094,0.112,0.201,0.21,0.313,0.296v5.527h8v-5.807
		c0.006-0.006,0.012-0.01,0.018-0.016l7.527-8.871C33.088,13.613,32.986,12.351,32.143,11.636z M23.549,22.297
		c-0.025,0.075-0.051,0.202-0.096,0.324c-0.037,0.122-0.082,0.271-0.135,0.442c-0.047,0.166-0.102,0.336-0.16,0.504
		c-0.057,0.172-0.117,0.358-0.188,0.527c-0.07,0.17-0.141,0.359-0.229,0.522c-0.166,0.345-0.375,0.673-0.623,0.983
		c-0.121,0.16-0.262,0.302-0.402,0.451c-0.141,0.146-0.299,0.279-0.457,0.412c-0.16,0.127-0.326,0.251-0.5,0.361
		c-0.174,0.109-0.346,0.214-0.52,0.305c-0.174,0.092-0.346,0.173-0.506,0.242c-0.109,0.05-0.217,0.09-0.316,0.126l-0.35,0.001
		c0.02-0.059,0.041-0.121,0.064-0.186c0.154-0.427,0.389-0.989,0.676-1.523c0.143-0.268,0.305-0.525,0.465-0.761
		c0.086-0.113,0.168-0.223,0.246-0.327c0.086-0.099,0.168-0.193,0.244-0.278c0.082-0.079,0.156-0.152,0.223-0.216
		c0.066-0.067,0.135-0.11,0.186-0.153c0.107-0.081,0.168-0.128,0.168-0.128s-0.064,0.042-0.176,0.116
		c-0.057,0.038-0.129,0.076-0.199,0.138c-0.072,0.06-0.154,0.126-0.244,0.201c-0.084,0.081-0.174,0.169-0.268,0.261
		c-0.088,0.1-0.182,0.205-0.277,0.314c-0.182,0.226-0.367,0.475-0.533,0.736c-0.336,0.521-0.619,1.075-0.813,1.499
		c-0.037,0.086-0.072,0.165-0.104,0.238c-0.021-0.053-0.045-0.113-0.063-0.177c-0.041-0.134-0.092-0.301-0.125-0.483
		c-0.033-0.184-0.055-0.383-0.064-0.599c-0.01-0.426,0.039-0.906,0.193-1.377c0.07-0.238,0.174-0.472,0.295-0.7
		c0.117-0.229,0.271-0.447,0.428-0.657c0.17-0.207,0.355-0.401,0.551-0.578c0.209-0.173,0.418-0.332,0.648-0.462
		c0.236-0.126,0.459-0.242,0.703-0.316c0.246-0.074,0.475-0.132,0.701-0.161c0.232-0.02,0.447-0.023,0.635-0.012
		c0.188,0.008,0.375,0.064,0.512,0.097c0.137,0.03,0.252,0.085,0.326,0.111c0.072,0.03,0.115,0.054,0.115,0.054
		S23.57,22.213,23.549,22.297z"/>
</g>
</svg>
