<?xml version="1.0" encoding="utf-8"?>
<!-- Generator: Adobe Illustrator 23.0.3, SVG Export Plug-In . SVG Version: 6.00 Build 0)  -->
<svg version="1.1" id="Layer_1" xmlns="http://www.w3.org/2000/svg" xmlns:xlink="http://www.w3.org/1999/xlink" x="0px" y="0px"
	 viewBox="0 0 628.8 112.6" style="enable-background:new 0 0 628.8 112.6;" xml:space="preserve">
<style type="text/css">
	.st0{fill:#0E6C38;}
</style>
<path class="st0" d="M66.4,70.8c-4.5-0.2-8.4,3.4-8.5,7.9s3.4,8.4,7.9,8.5s8.4-3.4,8.5-7.9c0,0,0,0,0,0c0-0.1,0-0.2,0-0.3
	C74.4,74.5,70.8,70.9,66.4,70.8z"/>
<path class="st0" d="M137,80.1c-11.8,9.8-24.8,12.4-38.4,7.8c-0.3-0.1-0.5-0.2-0.6-0.2c-2.2-0.7-5.5-1-9.2,4.4
	c-3.9,5.6-8.9,10.8-19.1,10.8c-0.8,0-1.6,0-2.4-0.1c-6-0.4-11.3-3.5-15.3-8.8c-1.6-2.1-3-4.5-4-7c-0.1-0.1-0.1-0.2-0.1-0.3
	c0,0,0-0.1,0-0.1c-0.1-0.4-0.2-0.6-0.2-0.6c0-0.1,0-0.2,0-0.3c-0.5-1.6-2-4.3-6.7-4.8c-7.3-0.7-17.4-4.4-21.7-9.4
	c-0.2-0.2-0.1-0.5,0-0.6c0.2-0.2,0.5-0.1,0.6,0l0,0c4.1,4.8,13.9,8.4,21.1,9.1c5.4,0.5,7,4,7.5,5.7c0.1,0.4,5.2,15.1,18.8,16.1
	c10.7,0.8,15.9-3.5,20.6-10.2c3-4.4,6.4-6,10.3-4.7c0.2,0.1,0.4,0.1,0.7,0.2c13.3,4.5,25.9,2,37.4-7.6c11.2-9.3,16.1-22.5,13.8-37.2
	c0-0.3,0.1-0.5,0.4-0.6c0.3,0,0.5,0.1,0.6,0.4C153.5,57.1,148.5,70.6,137,80.1z"/>
<path class="st0" d="M39.4,34.2c-4.3,0-7.9,3.5-7.9,7.9s3.5,7.9,7.9,7.9c4.3,0,7.9-3.5,7.9-7.9l0,0v0C47.3,37.7,43.8,34.2,39.4,34.2
	z"/>
<path class="st0" d="M108.6,39c-4.4,0-7.9,3.5-7.9,7.9c0,4.4,3.5,7.9,7.9,7.9c4.4,0,7.9-3.5,7.9-7.9C116.5,42.5,113,39,108.6,39
	C108.6,39,108.6,39,108.6,39z"/>
<path class="st0" d="M149.6,35.9c-9-21.4-33.6-31.5-55-22.5c-4,1.7-7.7,4-11,6.8c-1.4,1.3-3.2,2.1-5.1,2.4l0,0c-0.3,0-0.7,0-1,0
	c-2-0.1-3.9-1.3-5.5-3.4c-6.8-8.6-17.2-13-28.6-12.2c-11.8,0.7-22.5,7.3-28.6,17.4c-6.4,11-8.4,21.5-5.7,31.2
	c3.8,14.1,15.9,21.3,17.2,22c1,0.8,10.3,8.2,20.2,8.3c2.5,7.8,8.4,14,16,16.9l0,0c0.1,0,0.1,0.1,0.2,0.1c4.1,1.8,8.5,2.8,13,2.8
	c3.1,0,6.2-0.6,9-1.9c4.1-2.1,7.7-5.2,10.2-9c0.1-0.1,2-3.3,7-1.8c6.1,1.9,33.4,4.3,46.7-20.7C154.2,61.9,154.6,47.9,149.6,35.9z
	 M146.8,71.4c-12.6,23.7-38.5,21.5-44.2,19.7c-5.3-1.7-8.5,1-9.5,2.7c-2.3,3.5-5.5,6.3-9.3,8.2c-8.8,4.3-20.1-0.9-20.2-1
	c-0.2-0.1-0.5-0.2-0.7-0.3l0,0c-7-2.9-12.3-8.8-14.5-16.1c-0.1-0.5-0.5-0.8-1-0.8h0C37.5,84,27.7,76,27.6,75.9c0,0-0.1-0.1-0.2-0.1
	c-0.1-0.1-12.5-7.2-16.3-20.8c-2.5-9.1-0.6-19,5.5-29.5C22.4,15.8,32.4,9.7,43.6,9C54.2,8.3,64,12.4,70.3,20.5c2,2.6,4.4,4,7,4.2
	c0.4,0,0.8,0,1.1,0v0c2.5-0.3,4.8-1.3,6.6-3c10.3-9,24.5-11.9,37.4-7.7c11.4,3.4,20.7,11.7,25.2,22.7
	C152.4,48.1,152.1,61.4,146.8,71.4z"/>
<path class="st0" d="M52.6,26c-2.2-1.9-4.8-3.3-7.6-3.9v0c0,0-0.1,0-0.1,0l-0.1,0v0c-7.2-1.4-14.7,1.1-19.5,6.7
	c-3.6,3.9-5.6,9-5.6,14.2c-0.1,5,2,9.8,5.7,13.2c2.3,2.1,5.1,3.5,8.1,4l0,0c0,0,0,0,0,0s0,0,0.1,0v0c1.2,0.2,2.3,0.3,3.5,0.4
	c6-0.1,11.6-2.7,15.5-7.1C60.2,45.1,60.2,32.8,52.6,26z M51.9,52.8c-4.5,5.1-11.4,7.6-18.1,6.5c-2.9-0.5-5.6-1.9-7.8-3.8
	c-3.5-3.2-5.4-7.7-5.4-12.5c0.2-11.1,9.1-20.1,20.2-20.4c1.3,0,2.6,0.1,3.8,0.4c2.7,0.6,5.2,1.9,7.3,3.7
	C59.1,33.2,59.1,44.9,51.9,52.8L51.9,52.8z"/>
<path class="st0" d="M109.3,24.3c-0.3,0-0.6,0-0.9,0c-0.2,0-0.4,0-0.6,0.1v0C96,25.6,87,35.7,87.4,47.7c0.3,11.4,9.7,20.5,21.2,20.5
	c0.5,0,1,0,1.5,0c0.2,0,0.3,0,0.5-0.1v0c11.9-1.1,20.9-11.3,20.6-23.2C130.7,33.1,121,24,109.3,24.3
	C109.3,24.3,109.3,24.3,109.3,24.3z M110.4,67.1c-0.2,0-0.3,0-0.5,0.1c-11.1,0.8-20.7-7.6-21.5-18.7c0-0.3,0-0.6,0-0.9
	C88,36.2,96.6,26.4,108,25.4l0,0c0.2,0,0.4,0,0.5-0.1c0.5,0,0.9,0,1.4,0c10.9,0,19.9,8.6,20.2,19.6C130.4,56.3,121.8,66,110.4,67.1
	L110.4,67.1z"/>
<path class="st0" d="M132,29.3c-3.2-4.3-7.6-7.6-12.7-9.4c-6.9-2.5-14.4-2.1-22.4,1.1c-3.8,1.6-7.3,3.8-10.6,6.3
	c-4.1,3-7.9,5.5-12.7,5.5h-0.1c-6.3-0.2-9.4-3.2-14.4-8.2c-0.6-0.6-1.3-1.2-1.9-1.9c-5.4-5.3-11.2-8.3-21.8-6.2
	c-11.2,2.3-17.8,12.3-19.6,18.4c-2.7,9.6-0.2,16.6,2.5,20.8c3.2,5.2,8.5,9,13.8,9.9c1.2,0.2,2.3,0.4,3.4,0.5
	c4.4,0.7,7.9,1.2,11.1,3.9c3.6,3.1,6.1,8.8,6.9,11.6c1.8,6.8,5.1,10.8,9.9,11.8v0c0.1,0,0.5,0.1,0.6,0.1c0.9,0.2,1.9,0.2,2.8,0.2
	c5.1,0,8.9-2.6,12-8c3.3-5.8,6.4-9.1,10.1-10.8c3.7-1.7,8.1-1.5,14.8-1.3c1.9,0.1,4,0.1,6.4,0.2c10.9,0.1,22.2-7.7,25.2-17.5
	C138.3,45.7,137.3,36.6,132,29.3z M133.7,56.1c-2.8,9.2-13.5,16.6-23.8,16.5c-2.3,0-4.4-0.1-6.3-0.2c-6.9-0.2-11.4-0.3-15.4,1.5
	c-4,1.8-7.3,5.4-10.8,11.4c-3.3,5.8-7.4,8-13.3,7c-0.1,0-0.2,0-0.3-0.1l0,0c-4.3-0.8-7.4-4.5-9.1-10.8c-0.6-2.2-3-8.6-7.3-12.3
	c-3.4-2.9-7.3-3.5-11.8-4.2c-1.1-0.2-2.2-0.3-3.3-0.5c-4.9-0.9-9.8-4.4-12.9-9.3c-2.5-4-4.9-10.6-2.3-19.7
	c1.7-5.8,7.9-15.3,18.5-17.5c2-0.4,4-0.6,6-0.7c7.2,0,11.3,3.3,14.5,6.5c0.7,0.7,1.3,1.3,1.9,1.9c5.1,5,8.5,8.4,15.4,8.6h0.2l0,0
	c5.3,0,9.2-2.6,13.5-5.8c3.1-2.5,6.6-4.5,10.3-6.1c20.4-8.2,31.4,5.1,33.4,7.8C135.9,37,136.8,45.8,133.7,56.1z"/>
<polygon class="st0" points="576.4,60.6 560.7,32.6 559.9,32.6 559.9,44.4 560,44.4 576.3,73.7 576.5,73.7 576.5,60.6 "/>
<rect x="552.7" y="32.6" class="st0" width="7.4" height="41"/>
<rect x="576.3" y="32.6" class="st0" width="7.3" height="41"/>
<rect x="443" y="32.6" class="st0" width="7.7" height="41"/>
<path class="st0" d="M469.8,51.4c1.2-2,1.9-4.3,1.8-6.6c0.1-3.2-0.9-6.3-3-8.7c-2-2.3-5.3-3.4-9.7-3.5h-8.3v6.3h7
	c4.3,0,6.4,2,6.5,5.9c0.1,1.6-0.5,3.2-1.6,4.3c-1.2,1-3.3,1.5-6.2,1.5h-5.6v6.3h6.6c2.5-0.2,4.9-0.8,7.2-1.6
	C466.5,54.7,468.5,53.3,469.8,51.4z"/>
<path class="st0" d="M464.3,55.4c-2.3,0.8-4.7,1.4-7.2,1.6l7.5,16.7h8.4L464.3,55.4z"/>
<rect x="601.5" y="32.6" class="st0" width="18.7" height="6.6"/>
<rect x="601.5" y="67" class="st0" width="19.3" height="6.6"/>
<rect x="601.5" y="49" class="st0" width="13.6" height="6.6"/>
<rect x="593.9" y="32.6" class="st0" width="7.7" height="41"/>
<rect x="288.1" y="32.6" class="st0" width="18.7" height="6.6"/>
<rect x="288.1" y="67" class="st0" width="19.3" height="6.6"/>
<rect x="288.1" y="49" class="st0" width="13.6" height="6.6"/>
<rect x="280.6" y="32.6" class="st0" width="7.7" height="41"/>
<path class="st0" d="M196,59.5h-1.8c0,2.1-0.8,4.2-2.3,5.7c-1.6,1.6-3.8,2.4-6,2.3c-2.6,0-5-1.5-6.2-3.8c-1.5-2.5-2.3-5.9-2.3-10.3
	c0-4.6,0.7-8.2,2.1-10.9c1.1-2.4,3.6-4,6.3-4c3.7-0.1,6.4,1.9,8,5.8l7-1.9c-0.8-2.9-2.5-5.6-4.9-7.5c-2.4-1.9-5.6-2.9-9.5-2.9
	c-2.7-0.1-5.5,0.6-7.9,1.9c-2.1,1.2-3.9,2.9-5.1,5c-2.5,4.5-3.8,9.6-3.6,14.8c0,5.9,1.3,10.8,3.9,14.6c2.6,3.8,6.5,5.8,11.9,5.9
	c1.9,0,3.8-0.3,5.6-1c1.9-0.9,3.5-2.2,4.8-3.8V59.5z"/>
<polygon class="st0" points="186.4,52.9 186.4,59.7 195.9,59.7 195.9,73.7 201.4,73.7 201.4,52.9 "/>
<rect x="210.4" y="32.6" class="st0" width="7.6" height="41"/>
<path class="st0" d="M237.1,51.4c1.2-2,1.9-4.3,1.8-6.6c0.1-3.2-0.9-6.3-3-8.7c-2-2.3-5.3-3.4-9.7-3.5h-8.3v6.3h7
	c4.3,0,6.4,2,6.5,5.9c0.1,1.6-0.5,3.2-1.6,4.3c-1.2,1-3.3,1.5-6.2,1.5h-5.6v6.3h6.6c2.5-0.2,4.9-0.8,7.2-1.6
	C233.9,54.7,235.9,53.3,237.1,51.4z"/>
<path class="st0" d="M231.7,55.4c-2.3,0.8-4.7,1.4-7.2,1.6l7.5,16.7h8.4L231.7,55.4z"/>
<rect x="254.8" y="32.6" class="st0" width="18.7" height="6.6"/>
<rect x="254.8" y="67" class="st0" width="19.3" height="6.6"/>
<rect x="254.8" y="49" class="st0" width="13.6" height="6.6"/>
<rect x="247.2" y="32.6" class="st0" width="7.7" height="41"/>
<polygon class="st0" points="338.8,60.6 323.1,32.6 322.3,32.6 322.3,44.4 322.4,44.4 338.7,73.7 338.9,73.7 338.9,60.6 "/>
<rect x="315.1" y="32.6" class="st0" width="7.4" height="41"/>
<rect x="338.7" y="32.6" class="st0" width="7.3" height="41"/>
<rect x="381" y="32.6" class="st0" width="17.7" height="6.6"/>
<rect x="381" y="49" class="st0" width="13.3" height="6.6"/>
<rect x="373.4" y="32.6" class="st0" width="7.7" height="41"/>
<path class="st0" d="M419.1,32.1v6.6h0c6.1,0,9.2,4.9,9.1,14.4c0,9.6-3,14.4-9.1,14.4h0v6.6c11-0.2,16.6-7.2,16.7-21.1
	C435.7,39.2,430.1,32.2,419.1,32.1z"/>
<path class="st0" d="M419.2,67.6c-6.2,0-9.3-4.8-9.1-14.4c0-9.6,3-14.4,9.1-14.4h0v-6.6c-11,0.1-16.6,7.2-16.7,21.1
	c0.1,13.9,5.7,20.9,16.7,21.1L419.2,67.6L419.2,67.6z"/>
<rect x="487.1" y="39" class="st0" width="7.6" height="34.6"/>
<rect x="476.7" y="32.5" class="st0" width="28.4" height="6.6"/>
<path class="st0" d="M534.7,32.6v26c0,3.3-0.6,5.6-1.9,6.9c-1.2,1.4-3.2,2.1-5.8,2.1v6.6c3.9,0.2,7.7-1.1,10.7-3.5
	c3-2.4,4.5-6.5,4.6-12.4V32.6H534.7z"/>
<path class="st0" d="M521.3,65.5c-1.3-1.4-1.9-3.7-1.9-6.9v-26h-7.6v25.7c0.1,5.9,1.6,10,4.6,12.4c3,2.4,6.8,3.7,10.6,3.5v-6.6
	C525,67.8,522.9,67,521.3,65.5z"/>
</svg>
